<svg width="25" height="24" viewBox="0 0 25 24" fill="none" xmlns="http://www.w3.org/2000/svg">
<circle cx="12" cy="12" r="12" fill="#25284B"/>
<path d="M7.11111 12.2222L11.5556 10.7778L16.1111 12.2222" stroke="#E5E5E5"/>
<path d="M9.11111 14.6667L11.6351 13.3333L14.2222 14.6667" stroke="#E5E5E5"/>
<path d="M6.16092 9.64751L11.7395 8.36015L17.318 9.64751" stroke="#E5E5E5"/>
<path d="M4.22223 7.0728L11.7318 6L19.2414 7.0728" stroke="#E5E5E5"/>
<line x1="6.57575" y1="9.90911" x2="0.797974" y2="15.6869" stroke="#E5E5E5"/>
<line x1="9.46467" y1="15.0202" x2="3.68689" y2="20.798" stroke="#E5E5E5"/>
<line x1="4.57578" y1="7.46467" x2="0.35356" y2="11.6869" stroke="#E5E5E5"/>
<line x1="19.226" y1="6.74187" x2="24.3371" y2="11.4085" stroke="#E5E5E5"/>
<line x1="17.2362" y1="9.19586" x2="23.6806" y2="15.4181" stroke="#E5E5E5"/>
<line x1="7.47153" y1="12.5688" x2="1.91598" y2="18.3466" stroke="#E5E5E5"/>
<line x1="16.3402" y1="11.8558" x2="22.5624" y2="17.6336" stroke="#E5E5E5"/>
<line x1="14.5625" y1="14.3003" x2="20.7847" y2="20.0781" stroke="#E5E5E5"/>
<line x1="4.64201" y1="6.83949" x2="11.9753" y2="18.1728" stroke="#E5E5E5"/>
<line x1="19.5271" y1="7.38846" x2="11.9716" y2="18.7218" stroke="#E5E5E5"/>
</svg>
